HIERARCHY
ROOT Hips
{
	OFFSET -14.64140 90.27770 -84.91600
	CHANNELS 6 Xposition Yposition Zposition Zrotation Xrotation Yrotation
	JOINT Spine
	{
		OFFSET 0.00000 13.20850 -1.60436
		CHANNELS 3 Zrotation Xrotation Yrotation
		JOINT Spine1
		{
			OFFSET 0.00000 8.61716 0.00000
			CHANNELS 3 Zrotation Xrotation Yrotation
			JOINT Spine2
			{
				OFFSET 0.00000 8.61717 0.00000
				CHANNELS 3 Zrotation Xrotation Yrotation
				JOINT Spine3
				{
					OFFSET 0.00000 8.61717 0.00000
					CHANNELS 3 Zrotation Xrotation Yrotation
					JOINT Neck
					{
						OFFSET 0.00000 11.07920 1.10792
						CHANNELS 3 Zrotation Xrotation Yrotation
						JOINT Neck1
						{
							OFFSET 0.00000 7.08032 0.00000
							CHANNELS 3 Zrotation Xrotation Yrotation
							JOINT Head
							{
								OFFSET 0.00000 7.08031 0.00000
								CHANNELS 3 Zrotation Xrotation Yrotation
								End site
								{
									OFFSET 0.00000 0.00000 0.00000
								}
							}
						}
					}
					JOINT RightShoulder
					{
						OFFSET -0.01000 7.91373 5.19711
						CHANNELS 3 Zrotation Xrotation Yrotation
						JOINT RightArm
						{
							OFFSET -18.41580 0.00000 0.00000
							CHANNELS 3 Zrotation Xrotation Yrotation
							JOINT RightForeArm
							{
								OFFSET -29.11090 0.00000 0.00000
								CHANNELS 3 Zrotation Xrotation Yrotation
								JOINT RightHand
								{
									OFFSET -24.65040 0.00000 0.00000
									CHANNELS 3 Zrotation Xrotation Yrotation
									JOINT RightHandThumb1
									{
										OFFSET -5.35114 -0.85590 3.97906
										CHANNELS 3 Zrotation Xrotation Yrotation
										JOINT RightHandThumb2
										{
											OFFSET -4.52789 0.00000 0.00000
											CHANNELS 3 Zrotation Xrotation Yrotation
											JOINT RightHandThumb3
											{
												OFFSET -2.46976 0.00000 0.00000
												CHANNELS 3 Zrotation Xrotation Yrotation
												End site
												{
													OFFSET 0.00000 0.00000 0.00000
												}
											}
										}
									}
									JOINT RightHandIndex1
									{
										OFFSET -14.26970 0.00000 2.88139
										CHANNELS 3 Zrotation Xrotation Yrotation
										JOINT RightHandIndex2
										{
											OFFSET -5.48836 0.00000 0.00000
											CHANNELS 3 Zrotation Xrotation Yrotation
											JOINT RightHandIndex3
											{
												OFFSET -3.01859 0.00000 0.00000
												CHANNELS 3 Zrotation Xrotation Yrotation
												End site
												{
													OFFSET 0.00000 0.00000 0.00000
												}
											}
										}
									}
									JOINT RightHandMiddle1
									{
										OFFSET -14.26970 0.00000 -0.09147
										CHANNELS 3 Zrotation Xrotation Yrotation
										JOINT RightHandMiddle2
										{
											OFFSET -6.17441 0.00000 0.00000
											CHANNELS 3 Zrotation Xrotation Yrotation
											JOINT RightHandMiddle3
											{
												OFFSET -3.56743 0.00000 0.00000
												CHANNELS 3 Zrotation Xrotation Yrotation
												End site
												{
													OFFSET 0.00000 0.00000 0.00000
												}
											}
										}
									}
									JOINT RightHandRing1
									{
										OFFSET -12.69180 0.00000 -3.06433
										CHANNELS 3 Zrotation Xrotation Yrotation
										JOINT RightHandRing2
										{
											OFFSET -5.62556 0.00000 0.00000
											CHANNELS 3 Zrotation Xrotation Yrotation
											JOINT RightHandRing3
											{
												OFFSET -3.56744 0.00000 0.00000
												CHANNELS 3 Zrotation Xrotation Yrotation
												End site
												{
													OFFSET 0.00000 0.00000 0.00000
												}
											}
										}
									}
									JOINT RightHandPinky1
									{
										OFFSET -11.11390 0.00000 -6.03719
										CHANNELS 3 Zrotation Xrotation Yrotation
										JOINT RightHandPinky2
										{
											OFFSET -4.52789 0.00000 0.00000
											CHANNELS 3 Zrotation Xrotation Yrotation
											JOINT RightHandPinky3
											{
												OFFSET -2.46976 0.00000 0.00000
												CHANNELS 3 Zrotation Xrotation Yrotation
												End site
												{
													OFFSET 0.00000 0.00000 0.00000
												}
											}
										}
									}
								}
							}
						}
					}
					JOINT LeftShoulder
					{
						OFFSET 0.01000 7.91373 5.19711
						CHANNELS 3 Zrotation Xrotation Yrotation
						JOINT LeftArm
						{
							OFFSET 18.41580 0.00000 0.00000
							CHANNELS 3 Zrotation Xrotation Yrotation
							JOINT LeftForeArm
							{
								OFFSET 29.11090 0.00000 0.00000
								CHANNELS 3 Zrotation Xrotation Yrotation
								JOINT LeftHand
								{
									OFFSET 24.65040 0.00000 0.00000
									CHANNELS 3 Zrotation Xrotation Yrotation
									JOINT LeftHandThumb1
									{
										OFFSET 5.35114 -0.85590 3.97906
										CHANNELS 3 Zrotation Xrotation Yrotation
										JOINT LeftHandThumb2
										{
											OFFSET 4.52789 0.00000 0.00000
											CHANNELS 3 Zrotation Xrotation Yrotation
											JOINT LeftHandThumb3
											{
												OFFSET 2.46977 0.00000 0.00000
												CHANNELS 3 Zrotation Xrotation Yrotation
												End site
												{
													OFFSET 0.00000 0.00000 0.00000
												}
											}
										}
									}
									JOINT LeftHandIndex1
									{
										OFFSET 14.26970 0.00000 2.88139
										CHANNELS 3 Zrotation Xrotation Yrotation
										JOINT LeftHandIndex2
										{
											OFFSET 5.48836 0.00000 0.00000
											CHANNELS 3 Zrotation Xrotation Yrotation
											JOINT LeftHandIndex3
											{
												OFFSET 3.01859 0.00000 0.00000
												CHANNELS 3 Zrotation Xrotation Yrotation
												End site
												{
													OFFSET 0.00000 0.00000 0.00000
												}
											}
										}
									}
									JOINT LeftHandMiddle1
									{
										OFFSET 14.26970 0.00000 -0.09147
										CHANNELS 3 Zrotation Xrotation Yrotation
										JOINT LeftHandMiddle2
										{
											OFFSET 6.17440 0.00000 0.00000
											CHANNELS 3 Zrotation Xrotation Yrotation
											JOINT LeftHandMiddle3
											{
												OFFSET 3.56744 0.00000 0.00000
												CHANNELS 3 Zrotation Xrotation Yrotation
												End site
												{
													OFFSET 0.00000 0.00000 0.00000
												}
											}
										}
									}
									JOINT LeftHandRing1
									{
										OFFSET 12.69180 0.00000 -3.06433
										CHANNELS 3 Zrotation Xrotation Yrotation
										JOINT LeftHandRing2
										{
											OFFSET 5.62556 0.00000 0.00000
											CHANNELS 3 Zrotation Xrotation Yrotation
											JOINT LeftHandRing3
											{
												OFFSET 3.56744 0.00000 0.00000
												CHANNELS 3 Zrotation Xrotation Yrotation
												End site
												{
													OFFSET 0.00000 0.00000 0.00000
												}
											}
										}
									}
									JOINT LeftHandPinky1
									{
										OFFSET 11.11390 0.00000 -6.03719
										CHANNELS 3 Zrotation Xrotation Yrotation
										JOINT LeftHandPinky2
										{
											OFFSET 4.52789 0.00000 0.00000
											CHANNELS 3 Zrotation Xrotation Yrotation
											JOINT LeftHandPinky3
											{
												OFFSET 2.46976 0.00000 0.00000
												CHANNELS 3 Zrotation Xrotation Yrotation
												End site
												{
													OFFSET 0.00000 0.00000 0.00000
												}
											}
										}
									}
								}
							}
						}
					}
					JOINT pCube4
					{
						OFFSET 0.00000 10.91090 1.10792
						CHANNELS 3 Zrotation Xrotation Yrotation
						End site
						{
							OFFSET 0.00000 0.00000 0.00000
						}
					}
				}
			}
		}
	}
	JOINT RightUpLeg
	{
		OFFSET -9.98441 0.00000 0.00000
		CHANNELS 3 Zrotation Xrotation Yrotation
		JOINT RightLeg
		{
			OFFSET 0.00000 -42.11790 0.00000
			CHANNELS 3 Zrotation Xrotation Yrotation
			JOINT RightFoot
			{
				OFFSET 0.00000 -45.00020 -0.00001
				CHANNELS 3 Zrotation Xrotation Yrotation
				JOINT RightForeFoot
				{
					OFFSET 0.00000 -3.74820 0.00000
					CHANNELS 3 Zrotation Xrotation Yrotation
					JOINT RightToeBase
					{
						OFFSET 0.00000 0.06325 14.43120
						CHANNELS 3 Zrotation Xrotation Yrotation
						End site
						{
							OFFSET 0.00000 0.00000 0.00000
						}
					}
				}
			}
		}
	}
	JOINT LeftUpLeg
	{
		OFFSET 9.98441 0.00000 0.00000
		CHANNELS 3 Zrotation Xrotation Yrotation
		JOINT LeftLeg
		{
			OFFSET 0.00000 -42.11800 0.00000
			CHANNELS 3 Zrotation Xrotation Yrotation
			JOINT LeftFoot
			{
				OFFSET 0.00000 -45.00070 0.00000
				CHANNELS 3 Zrotation Xrotation Yrotation
				JOINT LeftForeFoot
				{
					OFFSET 0.00000 -3.74824 0.00000
					CHANNELS 3 Zrotation Xrotation Yrotation
					JOINT LeftToeBase
					{
						OFFSET 0.00000 0.06325 14.43110
						CHANNELS 3 Zrotation Xrotation Yrotation
						End site
						{
							OFFSET 0.00000 0.00000 0.00000
						}
					}
				}
			}
		}
	}
}
MOTION
Frames: 4
Frame Time: 0.050000
-0.02843323776489214 -0.025089848715628846 -0.040294769829491775 -0.044451953415199565 -0.03894510966376311 -0.020403567141769698 -3.583798697407018 4.026085467817735 -0.7984345764448612 -0.8186714803742577 4.532848566399429 0.32656813652699945 -0.7920958047620025 -0.1567036765695399 -1.583054681022006 1.4030297046787938 0.4770863428350483 -0.8876796385208294 -1.015696183773802 13.357397163268228 -1.1780711502263834 -0.21736881062449961 -1.0138975853396142 -3.342626867944529 0.13175893447913894 -15.642041390584446 -0.294449073827044 3.468808129096241 -0.9161824895409625 -14.732443167294782 61.89736306533141 14.959203931455454 14.17983156778011 34.57071162971569 4.628232161741929 80.19936860542683 21.03175975412725 0.05308198451531569 -7.587879058522459 4.537370282729267 -0.12516732815245213 -1.5616724432455367 -0.04538801624695477 -0.02336183497055973 -56.20601149669829 -0.025323868624538236 0.04450038026952845 -56.23988739048955 -38.736809443479764 0.03626696393928096 0.023479443568619442 -0.025671282197769 -0.0016855687923987889 0.0013732012946461093 -0.037462255436850875 0.00574619781227057 0.002222526015331597 -36.727290021769356 0.04135063290288256 -0.04563049065817532 -0.02251958103203796 0.022803791463516975 -0.007014825260640027 0.04726984453974505 -0.03205479859273936 -0.00323479265436277 -19.775188895731308 -0.009173227352428214 -0.04829037613932632 0.04465970206905038 0.004659127073521886 0.004062475481518555 0.007411258058939345 0.02228290768662998 -0.0413990871347133 24.046602415519377 0.004196262088583096 0.04759030288991649 28.864359560202672 0.011786998091208966 -0.03538195607755558 28.8985979504971 -0.02385812829449919 0.02675715601585391 1.9733843607852812 0.7005825130323851 13.397312570931664 -53.78956187714967 20.541004044025446 -39.49478316852556 9.399685225024468 -0.3945563110609371 -83.76167671609667 -18.4280685937853 10.58135586089623 -8.001280121726815 -0.5239770617067706 0.057100617140629556 -8.074853774949524 0.007298781744198723 -0.014985773143619785 44.61612942410791 -0.02296888415069213 -0.0016400365450823325 44.52551574733458 12.417618671470201 0.013026730071645048 0.029934852681229873 -0.00443297454692429 0.03967590650135666 0.027274668941891827 0.03194906392298757 0.005288875459616949 0.027954266149815096 11.08518124035618 -0.031756309766810424 0.031978212675475445 0.04466236567205039 0.045194881636832926 -0.04772880429761524 -0.003788444677136449 0.008107587334956624 0.017239158327909326 4.775567407249929 -0.04374688400561358 -0.04047019752819817 0.021778664085910972 -0.0008842549258523095 0.029032409623839184 0.021931762122635548 -0.04515883932207384 0.01598492351465319 -5.626749725131373 -0.034027561744835365 0.008530675011663703 -6.718905648716905 0.04011100872372464 -0.04365139057154038 -6.678773748334448 -0.026164256545639065 -0.012756241140140165 -0.00850769582951498 0.019042208140146667 -0.039618388216567234 8.005124090506918 3.472594696446615 -19.207770182416766 0.027854121735864792 10.394893448249594 0.04738137718984377 -5.585592595078504 -15.701210640874342 3.1928122218537833 -0.004614676374990819 0.023894816793963495 -0.016955560016083508 0.0050333390147026995 4.6548964124966234 0.015861800320779128 12.450150015649422 -8.271590429516724 6.836233336736809 -0.035076691877220095 46.41002693377304 0.0022292087321885913 -4.341840592000157 -14.751128262590177 -3.813627397163846 0.019858633543883984 -0.025614699920256553 -0.01065551455157053 0.007613752615248318 -10.779607989633625 -0.03233283667084424 
-0.045808994477128356 0.047547436428566806 -0.04030562733692713 -0.003628079249178891 -0.040732457760514845 -0.04098122066961484 -3.4181869602730814 3.9653603551091186 -0.7913016978154163 -0.7318983875583955 4.501966967776563 0.3200226445559782 -0.7597789549690226 -0.24552200309742164 -1.512484827696344 1.380087769390202 0.3650804192449268 -0.959123275552933 -0.9441782205298543 13.298520780487921 -1.2082783221969287 -0.25123827357643236 -1.0158200531716035 -3.4796678131975116 0.21442644108389963 -15.643801761517087 -0.3170138160195518 3.5112646629706297 -0.9370040584955666 -14.755603916676453 61.3969497447921 14.886082765468101 14.151101670389595 32.459083033350765 4.871814943403801 79.53041057393807 22.18648134483256 0.10620835720191235 -7.723577165022796 4.536501814898657 -0.1469177802842428 -1.6196084214020554 0.0004249575742735667 -0.03320596902808753 -56.19285722179283 0.04747715245175645 -0.0457498822204348 -56.26534536686011 -38.724414132387004 0.013817424112994667 0.005098955246985403 0.010866386274617827 -0.020648698197232508 0.047997863453252396 0.02114770689494397 0.03386663991574647 0.04755435922290339 -36.70165896459195 0.01631957516474967 -0.018238505093036043 0.01444065516039706 -0.039352887725347764 0.004366660069425288 -0.013308002942164285 -0.004210075296842395 0.02959759464152094 -19.7805977258616 -0.008253506071407561 0.01227031412662028 -0.04594494136309883 0.007490234977604795 0.014529079985757727 -0.012378212464780195 0.023612783309003554 0.04071588456104086 24.061056573598506 -0.014532668390896073 -0.019946802309415954 28.838631431493795 0.03966123937974264 0.015103252545389705 28.84155866624544 -0.02003263829104352 -0.015246312447895462 2.1297645832778964 0.7201605243286009 13.448169116867247 -53.35722798002809 18.44077188335651 -40.059856369402866 11.25589690613503 -1.4819236282709272 -83.40087570970347 -19.369127256276226 11.095027305513668 -8.558399305374545 -0.5063613775057539 0.11217285802857045 -8.133889121465412 -0.03558274896438183 -0.0011449264432501249 44.52386371529661 0.03462092903859125 0.008659151327349684 44.607601196537516 12.419836654634624 -0.02232215379670568 0.0014719797316454398 -0.000681609887907698 0.023652363808693348 -0.02341297156573578 -8.252855933246411e-05 -0.02783982458601909 -0.01794783398974686 11.111580513338163 -0.005819392573557773 -0.015918710072720787 -7.61085649467702e-05 -0.030737649483336106 -0.01170680078453305 -0.04029706906603016 -0.011126541277328362 -0.015373048203815595 4.788617556206877 0.031195627851888244 0.04651869533076427 -0.007715479970130372 0.02548478034291315 -0.009930265172934986 -0.029229204490958616 0.03986569004842035 0.0014280466772950383 -5.63959034899161 0.008176918579166992 -0.01405625514622128 -6.720179595108693 -0.04889758087469473 0.010896628641904054 -6.759637826969796 0.007065905663326933 0.01953915506705624 -0.03905134049258123 -0.012446427926436963 -0.0016459001661601846 7.99888772805766 3.484079023388148 -19.22008796439805 0.02300475160943371 10.405738130302732 0.03554955249053664 -5.624224069946926 -15.656794245095268 3.1548631855489213 0.029716433779064837 -0.038154447238298965 -0.03152204344055076 -0.002281633319056556 4.700261892596461 0.008813877665646952 12.458302626867638 -8.271843058256747 6.900759445484824 -0.03284487414512363 46.36842466260539 0.04643047439950519 -4.33445938716155 -14.763940932343871 -3.8477472982993146 0.041572821435753755 -0.025087042180094044 0.0008775234764557417 0.0338168637475646 -10.754030072028986 0.036911463515976885 
0.02422171844433944 0.004240358629198799 0.004185372428415715 0.03575303739253302 0.013374482447075401 0.018509549180653413 -3.3563765343129486 3.8828307666246946 -0.875183701940772 -0.6883402716716375 4.447105403122042 0.3659217302969839 -0.7020060857623914 -0.28758911988708913 -1.5553597408335176 1.328632031182533 0.32225904296925806 -0.8690226146215934 -1.0184194397226942 13.37023583469305 -1.2095285765277515 -0.23748886764361968 -1.0963768748795273 -3.5366974755840324 0.1624886555850666 -15.800306548173833 -0.24755289599391522 3.582027648284426 -0.8671913364147459 -14.770638572473459 60.98805897543965 14.839383279621286 14.02422795110209 30.748210137060777 5.722488797561512 79.07954529095248 23.26638344926821 0.11970697072846072 -7.743064530367287 4.550468973772716 -0.1458392706435601 -1.5488748542165998 -0.04166978102465894 -0.0317227237659546 -56.19504944166115 0.0006784198713592248 0.011727646172115518 -56.26111769853079 -38.760379464461096 0.009585209565672992 -0.022952996239020813 0.021747642205453832 0.018859821276452297 -0.003215393178806585 -0.0020740182977799547 -0.014860053441463046 -0.0459161043552561 -36.732630931002916 0.03272201858247253 0.02998554367692566 0.04129549739885667 0.031441948771863376 -0.014670253137578212 0.020763746494480997 -0.042968100833538594 -0.0007914026567146093 -19.72675867762317 0.023717166120336867 0.009957746712467545 0.034952889215161966 0.011493534894009519 -0.0038830394152345664 -0.039068148451760584 -0.0016778413104046222 -0.0006868384702895491 24.04720629111409 0.013546820829638864 0.02316937899525629 28.85248144724768 -0.014207972157409696 -0.03366460744152328 28.850060501468864 0.009216965822177244 -0.021853933584961488 2.2755574441922355 0.7273846619482283 13.474748708367716 -53.107351040693054 16.341854205131725 -40.846691198819386 12.624680684826515 -2.1139574728321393 -83.29113480439861 -20.32326237215318 11.813532522956242 -9.208492554441099 -0.48110265112526635 0.056665843033062165 -8.124045765540565 -0.045108762842586796 -0.04413908350352905 44.60662557274029 -3.466569135816707e-05 -0.035467252375203095 44.53369068463372 12.50786099399431 -0.04063911672522528 -0.004923814871356752 0.028744526378954294 0.029471091908507913 -0.00924579460669381 0.0466143778733934 0.032182901989750705 -0.009984060890206118 11.09852649952945 0.03861620522294382 0.03222358963249346 -0.01695692601846083 -0.02563928590203599 0.001914897782514449 -0.0307482074424442 0.022667734149975704 -0.0012132861197244522 4.801504313323185 0.0019231721327034085 0.03368633348082024 0.009392457706345801 -0.0445009784599419 0.04039635451450267 0.005992523165576286 0.03897408235512085 -0.004021002451005299 -5.577198944984481 0.008672147816595983 0.011265999654227603 -6.71289932852515 0.04387986793482615 -0.0378697032315414 -6.7203272369028415 0.04395093725295567 0.0305472899148418 -0.015708034934300782 -0.007538276450894708 -0.032909564067313476 7.996518246737174 3.5420124611454225 -19.198853210319974 0.008099566144037437 10.376192191449162 0.040624969398420176 -5.623999480331863 -15.661463745636873 3.2019475374254807 0.0013885970891757296 -0.005782086863796346 0.01267095378872001 -0.003766143112961019 4.661000115995286 -0.041314631318956345 12.451918213125056 -8.248411266250962 6.890585041935071 0.010029602791278269 46.358979448991654 -0.028696568364164066 -4.371415286561066 -14.705826045818819 -3.850472404382422 0.0026666071415520644 -0.00744109284489165 0.034140004692749595 -0.044013392604348334 -10.76475358125967 -0.03199080232655912 
0.016541220881988592 0.006061940680698795 -0.03819123547485103 -0.005379436651249809 0.003788807003386463 -0.019528650338464085 -3.2306731099181256 3.8585731250657576 -0.7903010352676634 -0.6581407193355678 4.4328168637479095 0.3407832163532664 -0.6303324669842797 -0.3955289602020017 -1.4526134513127609 1.2703591967881742 0.21548248220060762 -0.8714382450996879 -1.046160885180024 13.383349406844244 -1.1431308127969884 -0.23819890458030976 -1.1306186873546507 -3.3992881219530173 0.15880585436835193 -15.909001074042802 -0.2325019732702194 3.6541567956843033 -0.8941491665099919 -14.636259208443324 60.56287397548681 14.738689645099589 13.92430137277157 29.196830364500006 7.016875969817978 78.761174640421 24.3426219982947 0.12601686391366232 -7.593693660259433 4.517054484212915 -0.09794293449286978 -1.6273833017172417 -0.0045676785359515075 0.03925498472946811 -56.26872976138757 0.009075927157649894 -0.02634146587141666 -56.22568230836664 -38.74594141441935 -0.024517289463585012 -0.003437749740554985 -0.004640002413933661 -0.029989628143609746 -0.03239918511859099 -0.02518293063293131 0.008561685523442083 -0.03677247771567865 -36.65726705101075 -0.033170326283544015 0.02726874890248499 0.04138470716681711 0.003084714855258496 0.0016564152452851312 -0.025915165041656387 0.028143067608788964 -0.02007001539443704 -19.788272980260988 -0.03689760363900823 0.03934206835763654 0.04217533267343897 0.020007742244053748 0.02877912197798804 0.009419272755684133 0.01797189535978773 0.025106646401878815 24.046437347458514 0.034848215203222614 0.016652894793438913 28.87728703235859 0.03388275500119321 0.006297157539880814 28.83477740322594 0.03401331942131335 0.03565601013093785 2.5628367325944694 0.8543448600848003 13.550923434267537 -53.05800640268208 14.498967642462297 -41.76474478510684 13.600572557792118 -2.428931412874716 -83.08554634819335 -21.282573469691545 12.52444251080333 -10.011766098471792 -0.45359876777559527 0.028584364993667635 -8.128768433991056 0.022674784156890518 0.00989550241292357 44.54632479334048 0.04349785514544707 -0.03891364224378469 44.60714949305827 12.434488594927187 0.005171435364644167 0.023095166385656587 0.02956638328600405 0.0073670956375137785 -0.021383079778899406 -0.04158283397080501 -0.035530061903987886 -0.04505401386691163 11.098465925588355 -0.04406991982071399 -0.023893836760216534 -0.03144513173100153 -0.028307016302030415 -0.0476980544405802 0.02316084303520237 0.02910246671118059 -0.03781960538375106 4.783964917480158 0.032610293441416416 0.007047029544578851 0.029904799607770365 0.02975961826357769 0.009171815413277893 0.04983556138829632 0.022960734327217385 -0.00917420415039553 -5.607785355359498 0.03897551961198367 -0.04093799353332363 -6.705411708387098 -0.03300836095054871 0.03644013377263189 -6.704011941582297 0.03092245825311247 -0.007878819567596285 0.0090062003000859 -0.03388572476438194 -0.017731176003635357 8.034351856681814 3.4893847821381834 -19.216524826511257 -0.025337251227248565 10.404522062671555 -0.017649540313885274 -5.592591517950941 -15.632744061410458 3.225890606589138 -0.016143611880313394 -0.04225077217305374 -0.041103330889079026 0.025013263762023015 4.704023522838529 0.012305867559210716 12.49555085721538 -8.211147418420328 6.8708088544783585 -0.03556554393613362 46.36552358491649 0.008969580780672734 -4.304004298640185 -14.728965296618226 -3.8561621364088006 -0.03683993705278557 -0.013090736073551342 0.009561208980598885 0.011767885023019762 -10.747029297441497 -0.02698651274819604 
